<svg width="50.113px" height="50.113px" viewBox="-3.84 0 50.113 50.113" xmlns="http://www.w3.org/2000/svg">
  <g id="Group_1642" data-name="Group 1642" transform="translate(3428.416 -2189.476)">
    <path id="Path_3520" data-name="Path 3520" d="M-3397.7,2214.917a14.879,14.879,0,0,1-14.88,14.88,14.88,14.88,0,0,1-14.88-14.88,14.881,14.881,0,0,1,14.88-14.88,14.88,14.88,0,0,1,14.88,14.88" fill="#fff" fill-rule="evenodd"/>
    <path id="Path_3521" data-name="Path 3521" d="M-3394.624,2217.989a14.88,14.88,0,0,1-14.88,14.88,14.88,14.88,0,0,1-14.88-14.88,14.88,14.88,0,0,1,14.88-14.88,14.88,14.88,0,0,1,14.88,14.88" fill="#f47443" fill-rule="evenodd"/>
    <path id="Path_3522" data-name="Path 3522" d="M-3412.576,2201a13.936,13.936,0,0,0-13.92,13.92,13.935,13.935,0,0,0,13.92,13.92,13.935,13.935,0,0,0,13.92-13.92A13.936,13.936,0,0,0-3412.576,2201Zm0,29.76a15.858,15.858,0,0,1-15.84-15.84,15.857,15.857,0,0,1,15.84-15.84,15.857,15.857,0,0,1,15.84,15.84,15.858,15.858,0,0,1-15.84,15.84" fill="#6f0911" fill-rule="evenodd"/>
    <path id="Path_3523" data-name="Path 3523" d="M-3410.321,2202.725c-5.525,1.481-11.612-3.321-11.612-3.321s2.871-7.2,8.4-8.683,11.612,3.322,11.612,3.322-2.871,7.2-8.4,8.682" fill="#fff" fill-rule="evenodd"/>
    <path id="Path_3524" data-name="Path 3524" d="M-3407.249,2205.8c-5.525,1.48-11.613-3.322-11.613-3.322s2.872-7.2,8.4-8.683,11.613,3.322,11.613,3.322-2.872,7.2-8.4,8.683" fill="#5db67d" fill-rule="evenodd"/>
    <path id="Path_3525" data-name="Path 3525" d="M-3420.735,2199.083c1.606,1.092,6.13,3.8,10.166,2.714h0c4.05-1.084,6.6-5.685,7.446-7.433-1.606-1.091-6.129-3.8-10.167-2.716S-3419.891,2197.333-3420.735,2199.083Zm8.18,4.886c-5.073,0-9.746-3.633-9.973-3.812a.961.961,0,0,1-.3-1.11c.124-.312,3.116-7.667,9.039-9.254s12.191,3.288,12.456,3.5a.959.959,0,0,1,.3,1.109c-.124.312-3.116,7.668-9.039,9.254a9.536,9.536,0,0,1-2.482.317" fill="#6f0911" fill-rule="evenodd"/>
    <path id="Path_3526" data-name="Path 3526" d="M-3419.393,2207.141a.962.962,0,0,1-.922-.694,27.354,27.354,0,0,0-4.52-8.681.959.959,0,0,1,.116-1.352.959.959,0,0,1,1.353.116,28.839,28.839,0,0,1,4.9,9.386.96.96,0,0,1-.657,1.187.957.957,0,0,1-.267.038" fill="#6f0911" fill-rule="evenodd"/>
    <path id="Path_3527" data-name="Path 3527" d="M-3426.749,2195.673a.96.96,0,0,1-.536-.165c-.208-.139-.421-.271-.638-.392a.958.958,0,0,1-.371-1.306.958.958,0,0,1,1.3-.371c.266.147.525.307.778.478a.961.961,0,0,1,.259,1.332.962.962,0,0,1-.8.424" fill="#6f0911" fill-rule="evenodd"/>
    <path id="Path_3528" data-name="Path 3528" d="M-3389.056,2223.173a13.344,13.344,0,0,1-13.344,13.344,13.344,13.344,0,0,1-13.344-13.344h26.688" fill="#fff" fill-rule="evenodd"/>
    <path id="Path_3529" data-name="Path 3529" d="M-3385.984,2226.245a13.344,13.344,0,0,1-13.344,13.344,13.344,13.344,0,0,1-13.344-13.344h26.688" fill="#f47443" fill-rule="evenodd"/>
    <path id="Path_3530" data-name="Path 3530" d="M-3414.748,2224.133a12.4,12.4,0,0,0,12.348,11.424,12.4,12.4,0,0,0,12.348-11.424Zm12.348,13.344a14.321,14.321,0,0,1-14.3-14.3.961.961,0,0,1,.96-.96h26.688a.96.96,0,0,1,.96.96,14.32,14.32,0,0,1-14.3,14.3" fill="#6f0911" fill-rule="evenodd"/>
    <path id="Path_3531" data-name="Path 3531" d="M-3402.4,2233.029a.96.96,0,0,1-.96-.96v-5.083a.96.96,0,0,1,.96-.96.96.96,0,0,1,.96.96v5.083a.96.96,0,0,1-.96.96" fill="#6f0911" fill-rule="evenodd"/>
    <path id="Path_3532" data-name="Path 3532" d="M-3396.109,2230.423a.957.957,0,0,1-.679-.28l-3.2-3.2a.957.957,0,0,1,0-1.357.956.956,0,0,1,1.356,0l3.2,3.2a.96.96,0,0,1,0,1.358.959.959,0,0,1-.679.28" fill="#6f0911" fill-rule="evenodd"/>
    <path id="Path_3533" data-name="Path 3533" d="M-3405.557,2227.291a.957.957,0,0,1-.679-.282.961.961,0,0,1,0-1.357l.156-.155a.958.958,0,0,1,1.357,0,.959.959,0,0,1,0,1.357l-.155.155a.957.957,0,0,1-.679.282" fill="#6f0911" fill-rule="evenodd"/>
    <path id="Path_3534" data-name="Path 3534" d="M-3408.69,2230.423a.955.955,0,0,1-.679-.28.96.96,0,0,1,0-1.358l.931-.931a.958.958,0,0,1,1.357,0,.96.96,0,0,1,0,1.358l-.931.931a.956.956,0,0,1-.678.28" fill="#6f0911" fill-rule="evenodd"/>
  </g>
</svg>
